<svg height="512" viewBox="0 0 60 60" width="512" xmlns="http://www.w3.org/2000/svg"><g id="016---Work-Life-Balance"><path id="Shape" d="m56.17 15.79c1.61-1.48 3.83-3.51 3.83-7.54 0-4.4-2.73-7.25-7-7.25-2.1246792-.005603-4.1411616.93664422-5.5 2.57-1.3588384-1.63335578-3.3753208-2.575603-5.5-2.57-4.23 0-7 2.85-7 7.25 0 4 2.22 6.06 3.83 7.54 1.12 1 1.45 1.45 5.91 5.21h-22.3c.3635516-.6039929.5570448-1.2950401.56-2v-4.28c.6150891-.3551046.9957131-1.0097779 1-1.72v-4c0-2.209139-1.790861-4-4-4h-1v-2c0-1.65685425-1.3431458-3-3-3h-6c-1.65685425 0-3 1.34314575-3 3v2h-1c-2.209139 0-4 1.790861-4 4v4c.00428692.7102221.38491093 1.3648954 1 1.72v4.28c.00295516.7049599.19644839 1.3960071.56 2-1.25042958-.010718-2.41159213.6464744-3.04608896 1.7240192-.63449682 1.0775448-.64593276 2.4117373-.03 3.5000001.61593276 1.0882627 1.76565938 1.7652628 3.01608896 1.7759807h18.57c.4170867 3.3055816 2.8392205 6.0065795 6.08 6.78l-14.34 18.89c-.9074919 1.1893427-1.0631168 2.7900379-.4017185 4.1319134s2.0257052 2.1934099 3.5217185 2.1980866h26.14c1.4960133-.0046767 2.8603202-.8562111 3.5217185-2.1980866s.5057734-2.9425707-.4017185-4.1319134l-14.34-18.89c3.2407795-.7734205 5.6629133-3.4744184 6.08-6.78h18.57c1.9329966 0 3.5-1.5670034 3.5-3.5s-1.5670034-3.5-3.5-3.5h-6.24c4.47-3.77 4.74-4.18 5.91-5.21zm-47.17-12.79c0-.55228475.44771525-1 1-1h6c.5522847 0 1 .44771525 1 1v2h-8zm-5 6c0-1.1045695.8954305-2 2-2h14c1.1045695 0 2 .8954305 2 2v4h-6c0-1.1045695-.8954305-2-2-2h-2c-1.1045695 0-2 .8954305-2 2h-6zm10 7h-2v-3h2zm-9 3v-4h5v1c0 1.1045695.8954305 2 2 2h2c1.1045695 0 2-.8954305 2-2v-1h5v4c0 1.1045695-.8954305 2-2 2h-12c-1.1045695 0-2-.8954305-2-2zm38.07 39h-26.14c-.7366564-.0037407-1.4076361-.4243869-1.7319854-1.0858052-.3243494-.6614183-.2460992-1.4494754.2019854-2.0341948l14.6-19.23 14.6 19.23c.4480846.5847194.5263348 1.3727765.2019854 2.0341948-.3243493.6614183-.995329 1.0820645-1.7319854 1.0858052zm-13.07-25c-2.9255207-.0029647-5.4224145-2.1153959-5.91-5h11.82c-.4875855 2.8846041-2.9844793 4.9970353-5.91 5zm28-8.5c0 .8284271-.6715729 1.5-1.5 1.5h-53c-.82842712 0-1.5-.6715729-1.5-1.5s.67157288-1.5 1.5-1.5h53c.8284271 0 1.5.6715729 1.5 1.5zm-4-9.5c-1.31 1.28-5 4.41-6.54 5.66-1.46-1.21-5.19-4.34-6.46-5.66-1.9-1.86-4-3.15-4-6.79 0-3.3 1.81-5.21 5-5.21 1.7231002-.00898681 3.3396255.83295344 4.32 2.25.2915495.37847969.742247.60021279 1.22.60021279s.9284505-.2217331 1.22-.60021279c.967666-1.39001402 2.5464756-2.22782575 4.24-2.25 3.15 0 5 1.91 5 5.25 0 3.67-2.19 5.05-4 6.75z"/><path id="Shape" d="m55 7.25c-.5522847 0-1 .44771525-1 1 0 1.24-.34 1.69-1.68 2.92-.3067551.2787954-.409707.7179404-.2588241 1.1040232s.524317.639054.9388241.6359768c.2526349-.0008725.4955769-.0973348.68-.27 1.44-1.33 2.32-2.29 2.32-4.39 0-.55228475-.4477153-1-1-1z"/><path id="Shape" d="m18.08 55c0 .5522847.4477153 1 1 1h21.84c.5522847 0 1-.4477153 1-1s-.4477153-1-1-1h-21.84c-.5522847 0-1 .4477153-1 1z"/></g></svg>