<svg id="Capa_1" enable-background="new 0 0 512.5 512.5" height="512" viewBox="0 0 512.5 512.5" width="512" xmlns="http://www.w3.org/2000/svg"><g><g><path d="m276.385 103.036c2.499-3.312 1.84-8.024-1.472-10.523-3.311-2.498-8.023-1.84-10.523 1.472-1.766 2.341-4.456 3.683-7.382 3.683-2.911 0-5.594-1.332-7.36-3.655-2.513-3.303-7.226-3.943-10.529-1.432-3.303 2.512-3.943 7.226-1.432 10.529 4.633 6.091 11.675 9.584 19.321 9.584 7.683.001 14.745-3.52 19.377-9.658z"/><path d="m507.818 260.626-21.823-20.368 13.508-32.162c2.164-5.154.852-10.871-3.342-14.566-4.189-3.689-10.018-4.268-14.852-1.473-18.207 10.529-50.467 25.577-100.752 37.47-18.922 4.475-38.097 7.896-57.405 10.289v-17.654c0-3.389 1.671-6.554 4.47-8.465.035-.023.069-.047.104-.071l44.967-31.817c3.387-2.397 4.19-7.086 1.793-10.473-2.395-3.387-7.084-4.191-10.473-1.794l-44.92 31.784c-6.868 4.717-10.967 12.5-10.967 20.836v19.304c-34.474 3.299-69.276 3.299-103.751 0v-19.305c0-8.335-4.099-16.119-10.967-20.836l-98.983-70.037c-.089-.063-.178-.123-.269-.181-3.839-2.475-6.373-6.492-6.952-11.022s.862-9.056 3.955-12.418c4.919-5.344 12.955-6.527 19.197-2.854l56.732 40.447c.168.12.341.233.519.338l24.992 14.876c8.057 4.796 17.972 5.368 26.523 1.533l2.012-.901c7.099-3.183 12.82-8.488 16.582-14.96 6.218 1.691 12.751 2.611 19.498 2.611 6.615 0 13.026-.879 19.135-2.507 3.746 6.833 9.641 12.445 17.03 15.757 8.551 3.834 18.468 3.262 26.525-1.533l24.992-14.876c.178-.106.35-.219.518-.338l56.732-40.447c6.243-3.672 14.279-2.491 19.198 2.855 3.092 3.36 4.533 7.886 3.954 12.416s-3.113 8.548-6.952 11.023c-.091.059-.181.119-.269.181l-25.959 18.366c-3.387 2.396-4.19 7.085-1.794 10.473 2.397 3.386 7.085 4.191 10.473 1.794l25.835-18.279c7.493-4.89 12.434-12.771 13.57-21.652 1.143-8.938-1.701-17.866-7.802-24.497-9.812-10.664-25.913-12.93-38.286-5.384-.154.093-.304.193-.45.297l-56.722 40.439-24.726 14.717c-3.853 2.294-8.6 2.569-12.692.734-3.684-1.651-6.735-4.276-8.923-7.484 24.286-12.256 40.99-37.423 40.99-66.433.001-41.013-33.365-74.379-74.378-74.379s-74.379 33.366-74.379 74.379c0 28.847 16.518 53.892 40.582 66.224-2.146 2.892-5.015 5.262-8.429 6.792l-2.012.901c-4.093 1.834-8.838 1.56-12.692-.734l-24.726-14.717-56.722-40.439c-.147-.104-.297-.203-.45-.297-12.373-7.544-28.474-5.279-38.286 5.385-6.102 6.631-8.945 15.56-7.802 24.498 1.136 8.881 6.078 16.763 13.571 21.652l98.906 69.982c.034.024.068.048.103.071 2.799 1.911 4.47 5.076 4.47 8.465v17.655c-19.31-2.393-38.487-5.813-57.41-10.289-50.284-11.893-82.543-26.941-100.753-37.47-4.833-2.793-10.662-2.216-14.851 1.474-4.194 3.694-5.506 9.412-3.341 14.566l13.508 32.16-21.818 20.363c-3.234 3.018-4.67 7.416-3.842 11.764.826 4.336 3.768 7.887 7.87 9.5 23.48 9.231 50.912 17.098 81.535 23.381 4.064.832 8.036-1.785 8.87-5.85s-1.785-8.036-5.85-8.87c-28.338-5.814-53.797-12.995-75.737-21.36l20.36-19.003c3.9-3.641 5.133-9.391 3.067-14.311l-11.6-27.619c19.797 10.739 51.892 24.727 99.124 35.899 83.587 19.77 171.951 19.77 255.536 0 47.232-11.171 79.328-25.16 99.124-35.899l-11.6 27.619c-2.066 4.919-.833 10.67 3.067 14.311l20.371 19.012c-100.75 38.652-232.254 38.386-233.695 38.362-.631.007-62.995.212-134.198-10.926-4.099-.64-7.942 2.162-8.584 6.261s2.162 7.943 6.261 8.584c22.999 3.598 45.104 6.031 64.586 7.676v155.605c0 20.811 16.931 37.742 37.741 37.742.621 0 1.238-.015 1.847-.045 19.529-.945 34.826-17.312 34.826-37.262l.001-65.252c6.52 4.553 14.502 7.045 22.964 6.758 20.084-.687 36.424-17.899 36.424-38.368v-58.564c49.362-4.055 119.966-13.918 180.653-37.884 4.098-1.618 7.035-5.171 7.857-9.504.826-4.344-.611-8.737-3.842-11.752zm-309.958-186.247c0-32.727 26.625-59.353 59.353-59.353s59.352 26.625 59.352 59.353-26.625 59.353-59.352 59.353-59.353-26.625-59.353-59.353zm110.266 303.953c0 12.462-9.83 22.937-21.912 23.35-10.306.364-19.398-6.145-22.451-15.883v-39.986c0-4.149-3.364-7.513-7.514-7.513-4.149 0-7.513 3.364-7.513 7.513v129.381c0 11.921-9.016 21.696-20.529 22.253-.37.018-.743.027-1.119.027-12.525 0-22.715-10.19-22.715-22.715v-154.447c33.753 2.353 56.577 2.277 56.905 2.272.199.001.555.002 1.063.002 4.591 0 21.539-.123 45.783-1.709v57.455z"/></g></g></svg>