<svg width="50" height="67" viewBox="0 0 50 67" fill="none" xmlns="http://www.w3.org/2000/svg">
<path d="M12.4773 30.0885H19.2276V37.0287C19.2276 37.4879 19.5886 37.8591 20.0352 37.8591H29.903C30.3496 37.8591 30.7106 37.4879 30.7106 37.0287V30.0885H37.4617C37.9083 30.0885 38.2693 29.7173 38.2693 29.2581V19.1135C38.2693 18.6543 37.9083 18.2831 37.4617 18.2831H30.7106V11.3421C30.7106 10.8829 30.3496 10.5117 29.903 10.5117H20.0352C19.5886 10.5117 19.2276 10.8829 19.2276 11.3421V18.2831H12.4773C12.0307 18.2831 11.6697 18.6543 11.6697 19.1135V29.2589C11.6697 29.7173 12.0307 30.0885 12.4773 30.0885ZM13.285 19.9439H20.0352C20.4818 19.9439 20.8429 19.5727 20.8429 19.1135V12.1725H29.0953V19.1135C29.0953 19.5727 29.4563 19.9439 29.903 19.9439H36.654V28.4286H29.903C29.4563 28.4286 29.0953 28.7997 29.0953 29.2589V36.1991H20.8429V29.2589C20.8429 28.7997 20.4818 28.4286 20.0352 28.4286H13.285V19.9439Z" fill="#1C3C3C"/>
<path d="M6.88513 0C3.08841 0 0 3.17533 0 7.07888V59.3497C0 63.2533 3.08841 66.4286 6.88513 66.4286H43.0529C46.8496 66.4286 49.938 63.2533 49.938 59.3497V7.07888C49.938 3.17533 46.8496 0 43.0529 0H6.88513ZM48.3227 7.07888V59.3497C48.3227 62.3374 45.9579 64.7679 43.0529 64.7679H6.88513C3.97924 64.7679 1.61528 62.3365 1.61528 59.3497V7.07888C1.61528 4.09122 3.98005 1.66074 6.88513 1.66074H43.0529C45.9587 1.66074 48.3227 4.09205 48.3227 7.07888Z" fill="#1C3C3C"/>
<path d="M40.9201 45.886H9.01833C8.57171 45.886 8.21069 46.2572 8.21069 46.7164C8.21069 47.1755 8.57171 47.5467 9.01833 47.5467H40.9201C41.3668 47.5467 41.7278 47.1755 41.7278 46.7164C41.7278 46.2572 41.3668 45.886 40.9201 45.886Z" fill="#1C3C3C"/>
<path d="M40.9201 52.343H9.01833C8.57171 52.343 8.21069 52.7142 8.21069 53.1734C8.21069 53.6326 8.57171 54.0037 9.01833 54.0037H40.9201C41.3668 54.0037 41.7278 53.6326 41.7278 53.1734C41.7278 52.7142 41.3668 52.343 40.9201 52.343Z" fill="#1C3C3C"/>
</svg>
