<svg width="68" height="68" viewBox="0 0 68 68" fill="none" xmlns="http://www.w3.org/2000/svg">
<path d="M19.2313 47.7706V49.3307C19.2313 51.6741 21.1308 53.5787 23.4796 53.6186V56.1909C23.4796 61.3743 27.8881 65.5915 33.3061 65.5915C38.7248 65.5915 43.1334 61.3743 43.1334 56.1909V50.4978C43.1334 46.2515 46.7791 42.7968 51.2598 42.7968C55.7406 42.7968 59.3863 46.2515 59.3863 50.4978V52.6245C55.5043 53.0468 52.4726 56.3213 52.4726 60.2882C52.4726 64.5406 55.9556 68 60.2363 68C64.517 68 68 64.5406 68 60.2882C68 56.3213 64.9683 53.0468 61.0863 52.6245V50.4978C61.0863 45.314 56.6777 41.0968 51.2598 41.0968C45.8419 41.0968 41.4333 45.314 41.4333 50.4978V56.1909C41.4333 60.4372 37.7876 63.8915 33.3061 63.8915C28.8253 63.8915 25.1796 60.4372 25.1796 56.1909V53.6186C27.5283 53.5787 29.4279 51.6741 29.4279 49.3307V47.7706C40.4035 45.4375 48.6592 35.7366 48.6592 24.154C48.6592 10.8354 37.7453 0 24.3296 0C10.9139 0 0 10.8354 0 24.154C0 35.7366 8.2557 45.4375 19.2313 47.7706ZM66.3 60.2882C66.3 63.6031 63.5798 66.3 60.2363 66.3C56.8927 66.3 54.1726 63.6031 54.1726 60.2882C54.1726 56.9728 56.8927 54.2759 60.2363 54.2759C63.5798 54.2759 66.3 56.9728 66.3 60.2882ZM27.7279 49.3307C27.7279 50.7618 26.5517 51.926 25.1065 51.926H23.5526C22.1075 51.926 20.9313 50.7618 20.9313 49.3307V48.0679C22.0425 48.2228 23.1759 48.3085 24.3296 48.3085C25.4832 48.3085 26.6167 48.2228 27.7279 48.0679V49.3307ZM24.3296 1.7C36.8073 1.7 46.9592 11.773 46.9592 24.154C46.9592 36.5355 36.8073 46.6085 24.3296 46.6085C11.8519 46.6085 1.7 36.5355 1.7 24.154C1.7 11.773 11.8519 1.7 24.3296 1.7Z" fill="#1C3C3C"/>
<path d="M24.3297 43.6979C35.1838 43.6979 44.0142 34.9306 44.0142 24.1541C44.0142 13.3776 35.1838 4.61035 24.3297 4.61035C13.4756 4.61035 4.64526 13.3776 4.64526 24.1541C4.64526 34.9306 13.4756 43.6979 24.3297 43.6979ZM14.6225 9.15607L15.8721 11.3049C16.0298 11.5764 16.3145 11.7279 16.6075 11.7279C16.7528 11.7279 16.8997 11.6909 17.0342 11.6125C17.4401 11.3767 17.5779 10.8563 17.3413 10.4508L16.0956 8.30856C18.3271 7.16232 20.8287 6.47699 23.4797 6.3531V8.82383C23.4797 9.29324 23.8599 9.67383 24.3297 9.67383C24.7996 9.67383 25.1797 9.29324 25.1797 8.82383V6.3531C27.8308 6.47699 30.3324 7.16232 32.5638 8.30856L31.3182 10.4508C31.0816 10.8563 31.2194 11.3767 31.6253 11.6125C31.7598 11.6909 31.9067 11.7279 32.052 11.7279C32.345 11.7279 32.6297 11.5764 32.7874 11.3049L34.0369 9.15607C36.2016 10.5401 38.0453 12.3683 39.4413 14.5152L37.2839 15.7517C36.8764 15.9853 36.7352 16.5045 36.9693 16.9117C37.1262 17.186 37.4126 17.3392 37.7073 17.3392C37.8509 17.3392 37.9961 17.3031 38.129 17.2267L40.2994 15.9827C41.4542 18.1953 42.1451 20.6756 42.2708 23.3041H39.7758C39.306 23.3041 38.9258 23.6847 38.9258 24.1541C38.9258 24.6235 39.306 25.0041 39.7758 25.0041H42.2708C42.1451 27.6328 41.4542 30.1132 40.2992 32.3258L38.129 31.082C37.723 30.8479 37.2018 30.9886 36.9693 31.397C36.7352 31.8041 36.8764 32.3233 37.2839 32.557L39.4411 33.7934C38.0452 35.9401 36.2015 37.7681 34.0371 39.1521L32.7874 37.0033C32.5517 36.5974 32.0304 36.4588 31.6253 36.6962C31.2194 36.9319 31.0816 37.4524 31.3182 37.8583L32.5636 39.9998C30.3322 41.1459 27.8307 41.8313 25.1797 41.9552V39.4848C25.1797 39.0154 24.7996 38.6348 24.3297 38.6348C23.8599 38.6348 23.4797 39.0154 23.4797 39.4848V41.9552C20.8287 41.8313 18.3273 41.1459 16.0959 39.9998L17.3413 37.8583C17.5779 37.4524 17.4401 36.9319 17.0342 36.6962C16.6283 36.4596 16.1078 36.5982 15.8721 37.0033L14.6224 39.1521C12.458 37.7681 10.6143 35.9401 9.21837 33.7934L11.3755 32.557C11.7831 32.3233 11.9242 31.8041 11.6901 31.397C11.4569 30.989 10.9364 30.8483 10.5305 31.082L8.36023 32.3258C7.20528 30.1132 6.51439 27.6328 6.38869 25.0041H8.9102C9.38003 25.0041 9.7602 24.6235 9.7602 24.1541C9.7602 23.6847 9.38003 23.3041 8.9102 23.3041H6.38869C6.51439 20.6756 7.20522 18.1953 8.36007 15.9827L10.5305 17.2267C10.6633 17.3031 10.8086 17.3392 10.9522 17.3392C11.2469 17.3392 11.5333 17.186 11.6901 16.9117C11.9242 16.5045 11.7831 15.9853 11.3755 15.7517L9.21816 14.5152C10.6141 12.3683 12.4579 10.5401 14.6225 9.15607Z" fill="#1C3C3C"/>
<path d="M24.3295 28.7671C26.8887 28.7671 28.9713 26.6978 28.9713 24.154C28.9713 21.8991 27.3337 20.0203 25.1795 19.6219V14.5736C25.1795 14.1042 24.7994 13.7236 24.3295 13.7236C23.8597 13.7236 23.4795 14.1042 23.4795 14.5736V19.6219C21.3254 20.0203 19.6877 21.8991 19.6877 24.154C19.6877 26.6978 21.7704 28.7671 24.3295 28.7671ZM24.3295 21.2408C25.9515 21.2408 27.2713 22.5478 27.2713 24.154C27.2713 25.7602 25.9515 27.0671 24.3295 27.0671C22.7076 27.0671 21.3877 25.7602 21.3877 24.154C21.3877 22.5478 22.7076 21.2408 24.3295 21.2408Z" fill="#1C3C3C"/>
</svg>
