<svg width="65" height="64" viewBox="0 0 65 64" fill="none" xmlns="http://www.w3.org/2000/svg">
<path d="M36.8447 49.5C38.8447 46.8 44.9447 46.8 47.1447 47C47.7447 47 48.1447 46.6 48.2447 46.1C48.3447 45.6 47.9447 45.1 47.3447 45C46.9447 45 38.4447 44.2 35.2447 48.3C34.9447 48.7 35.0447 49.4 35.4447 49.7C35.9447 50 36.5447 50 36.8447 49.5Z" fill="black"/>
<path d="M36.4444 55.6999C36.8444 55.9999 37.5444 55.8999 37.8444 55.4999C39.8444 52.7999 45.9444 52.7999 48.1444 52.9999C48.7444 52.9999 49.1444 52.5999 49.2444 52.0999C49.3444 51.5999 48.9444 51.0999 48.3444 50.9999C39.3444 50.1999 34.6444 54.3999 36.4444 55.6999Z" fill="black"/>
<path d="M17.1441 47C19.3441 46.8 25.3441 46.8 27.4441 49.5C27.7441 49.9 28.4441 50 28.8441 49.7C29.2441 49.4 29.3441 48.7 29.0441 48.3C25.8441 44.2 17.3441 45 16.9441 45C16.4441 45.1 15.9441 45.5 16.0441 46.1C16.1441 46.6 16.6441 47 17.1441 47Z" fill="black"/>
<path d="M16.1441 53C18.3441 52.8 24.3441 52.8 26.4441 55.5C26.7441 55.9 27.4441 56 27.8441 55.7C28.2441 55.4 28.3441 54.7 28.0441 54.3C24.9441 50.2 16.3441 51 15.9441 51C15.4441 51.1 14.9441 51.5 15.0441 52.1C15.1441 52.7 15.6441 53.1 16.1441 53Z" fill="black"/>
<path d="M64.2444 62.6L56.8444 43.9C56.6444 43.5 56.3444 43.3 55.9444 43.3H52.1444L51.0444 39.8C50.9444 39.4 50.5444 39.1 50.1444 39.1C45.0444 38.6 35.5444 38.9 32.1444 42.9C28.7444 38.9 19.1444 38.7 14.1444 39.1C13.7444 39.1 13.4444 39.4 13.2444 39.8L12.1444 43.3H8.44444C8.04444 43.3 7.64444 43.5 7.54444 43.9L0.0444394 62.6C-0.155561 63.3 0.344439 64 1.04444 64H63.3444C63.9444 64 64.4444 63.3 64.2444 62.6ZM49.3444 41.1L54.4444 57C52.8444 56.5 51.1444 56.2 49.2444 56.2C42.5444 56.2 36.0444 59.5 33.1444 61.2V45C35.1444 41 44.8444 40.8 49.3444 41.1ZM14.9444 41.1C19.4444 40.8 29.1444 41 31.1444 45V61.2C28.2444 59.5 21.6444 56.2 15.0444 56.2C13.2444 56.2 11.4444 56.5 9.84444 57L13.7444 44.7L14.9444 41.1ZM9.14444 45.3H11.5444L7.34444 58.4C7.04444 59.2 7.94444 60 8.74444 59.6C10.5444 58.7 12.6444 58.2 15.0444 58.2C20.1444 58.2 25.2444 60.4 28.4444 62H2.44444L9.14444 45.3ZM35.8444 62C39.0444 60.4 44.1444 58.2 49.2444 58.2C51.6444 58.2 53.7444 58.7 55.5444 59.6C55.9444 59.8 56.3444 59.7 56.6444 59.5C56.9444 59.2 57.0444 58.8 56.9444 58.4L52.7444 45.3H55.1444L61.8444 62H35.8444Z" fill="black"/>
<path d="M25.244 29.2999C26.244 29.9999 26.844 31.1999 26.844 32.2999V32.5999V33.8999H26.444C25.844 33.8999 25.444 34.2999 25.444 34.8999C25.444 35.4999 25.844 35.8999 26.444 35.8999H26.844V36.0999C26.844 37.1999 27.744 38.0999 28.844 38.0999H35.344C36.444 38.0999 37.344 37.1999 37.344 36.0999V35.8999H37.744C38.344 35.8999 38.744 35.4999 38.744 34.8999C38.744 34.2999 38.344 33.8999 37.744 33.8999H37.344V32.5999V32.2999C37.344 31.0999 37.944 29.9999 39.044 29.1999C42.244 26.9999 44.144 23.2999 44.144 19.3999C44.144 12.7999 38.744 7.3999 32.144 7.3999C25.944 7.3999 21.044 12.0999 20.244 17.6999C19.644 22.2999 21.544 26.6999 25.244 29.2999ZM35.444 36.0999H28.944V33.5999H35.444V36.0999ZM22.244 18.0999C22.844 13.3999 26.944 9.4999 32.144 9.4999C37.644 9.4999 42.144 13.9999 42.144 19.4999C42.144 22.6999 40.544 25.7999 37.944 27.6999C36.544 28.6999 35.744 30.0999 35.444 31.5999H33.144V21.2999C34.244 21.4999 35.444 21.1999 36.244 20.3999C36.644 19.9999 36.644 19.3999 36.244 18.9999C35.844 18.5999 35.244 18.5999 34.844 18.9999C34.344 19.4999 33.444 19.5999 32.844 18.9999C32.444 18.5999 31.844 18.6999 31.444 18.9999C30.944 19.4999 30.044 19.4999 29.444 18.9999C29.044 18.5999 28.444 18.5999 28.044 18.9999C27.644 19.3999 27.644 19.9999 28.044 20.3999C28.744 21.0999 29.544 21.3999 30.444 21.3999C30.644 21.3999 30.944 21.3999 31.144 21.2999V31.5999H28.844C28.644 30.0999 27.744 28.5999 26.444 27.6999C23.344 25.4999 21.744 21.7999 22.244 18.0999Z" fill="black"/>
<path d="M32.1445 5.4C32.7445 5.4 33.1445 5 33.1445 4.4V1C33.1445 0.4 32.7445 0 32.1445 0C31.5445 0 31.1445 0.4 31.1445 1V4.4C31.1445 5 31.6445 5.4 32.1445 5.4Z" fill="black"/>
<path d="M25.3441 5.90006C25.5441 6.40006 26.1441 6.70007 26.6441 6.40006C27.1441 6.20007 27.4441 5.60006 27.1441 5.10006L25.9441 2.00006C25.7441 1.50006 25.1441 1.20006 24.6441 1.50006C24.1441 1.70006 23.8441 2.30006 24.1441 2.80006L25.3441 5.90006Z" fill="black"/>
<path d="M20.6443 9.6C21.0443 10 21.6443 10 22.0443 9.6C22.4443 9.2 22.4443 8.6 22.0443 8.2L19.6443 5.8C19.2443 5.4 18.6443 5.4 18.2443 5.8C17.8443 6.2 17.8443 6.8 18.2443 7.2L20.6443 9.6Z" fill="black"/>
<path d="M43.6443 9.6L46.0443 7.2C46.4443 6.8 46.4443 6.2 46.0443 5.8C45.6443 5.4 45.0443 5.4 44.6443 5.8L42.2443 8.2C41.8443 8.6 41.8443 9.2 42.2443 9.6C42.6443 10 43.2443 10 43.6443 9.6Z" fill="black"/>
<path d="M37.6441 6.50008C38.1441 6.70008 38.7441 6.50008 38.9441 6.00008L40.2441 2.90008C40.4441 2.40008 40.2441 1.80008 39.7441 1.60008C39.2441 1.40008 38.6441 1.60008 38.4441 2.10008L37.1441 5.20008C36.8441 5.70008 37.1441 6.30008 37.6441 6.50008Z" fill="black"/>
</svg>
