<svg width="75" height="67" viewBox="0 0 75 67" fill="none" xmlns="http://www.w3.org/2000/svg">
<path d="M72.2361 31.9423H69.6205C74.106 23.7624 72.9379 13.2361 66.082 6.2988C62.0663 2.23696 56.7277 0 51.0489 0C45.4337 0 40.1497 2.18714 36.1493 6.16476C32.1498 2.18714 26.8666 0 21.2496 0C15.5708 0 10.2322 2.23696 6.21744 6.2988C-2.07248 14.686 -2.07248 28.3315 6.21744 36.7178L36.1493 67L65.5395 37.2657H72.2352C73.6853 37.2657 74.8651 36.072 74.8651 34.604C74.866 33.1368 73.6862 31.9423 72.2361 31.9423ZM36.1493 64.4388L7.48407 35.4372C-0.106745 27.7573 -0.106745 15.2602 7.48407 7.57939C11.1604 3.85988 16.0497 1.8113 21.2505 1.8113C26.4522 1.8113 31.3405 3.85988 35.0178 7.57939L36.1502 8.72594L37.2825 7.57939C40.9598 3.85988 45.849 1.8113 51.0498 1.8113C56.2506 1.8113 61.139 3.85988 64.8171 7.57939C71.3436 14.1843 72.2423 24.3412 67.5455 31.9423H50.3982L45.7864 39.4338L36.1994 11.6965L26.4432 31.8245H23.9511C23.0229 30.2152 21.3114 29.2027 19.4423 29.2027C16.5626 29.2027 14.2209 31.5728 14.2209 34.4863C14.2209 37.3997 16.5626 39.7689 19.4423 39.7689C21.3123 39.7689 23.0229 38.7582 23.9511 37.1471H29.9969L35.332 26.1407L44.3568 52.247L53.5795 37.2648H63.008L36.1493 64.4388ZM72.2361 35.4544H52.585L44.8125 48.081L35.6086 21.4558L28.8798 35.3367H22.8188L22.5842 35.8791C22.0364 37.1425 20.8029 37.9585 19.4414 37.9585C17.5491 37.9585 16.0103 36.4008 16.0103 34.4872C16.0103 32.5726 17.5491 31.0149 19.4414 31.0149C20.8029 31.0149 22.0355 31.8309 22.5842 33.0952L22.8188 33.6368H27.5595L35.9228 16.3832L45.3307 43.6025L51.3927 33.7545H72.2361C72.6998 33.7545 73.0757 34.1358 73.0757 34.604C73.0757 35.0722 72.6989 35.4544 72.2361 35.4544Z" fill="#1C3C3C"/>
</svg>
