<svg width="69" height="71" viewBox="0 0 69 71" fill="none" xmlns="http://www.w3.org/2000/svg">
<path d="M33.3045 27.267C33.3758 27.3418 33.4614 27.4013 33.5563 27.4419C33.6512 27.4826 33.7534 27.5035 33.8566 27.5035C33.9599 27.5035 34.062 27.4826 34.1569 27.4419C34.2518 27.4013 34.3375 27.3418 34.4087 27.267L45.5506 15.6074C46.8686 14.2 47.602 12.344 47.602 10.4158C47.602 8.48764 46.8686 6.63165 45.5506 5.22425C44.9082 4.53983 44.1323 3.99433 43.2708 3.62143C42.4093 3.24854 41.4806 3.05615 40.5419 3.05615C39.6031 3.05615 38.6744 3.24854 37.8129 3.62143C36.9514 3.99433 36.1755 4.53983 35.5331 5.22425L33.8566 6.97827L32.1802 5.22425C31.5377 4.53983 30.7618 3.99433 29.9004 3.62143C29.0389 3.24854 28.1101 3.05615 27.1714 3.05615C26.2327 3.05615 25.304 3.24854 24.4425 3.62143C23.581 3.99433 22.8051 4.53983 22.1627 5.22425C20.8447 6.63165 20.1113 8.48764 20.1113 10.4158C20.1113 12.344 20.8447 14.2 22.1627 15.6074L33.3045 27.267ZM23.2669 6.2792C23.7668 5.74426 24.3714 5.31776 25.0431 5.02617C25.7148 4.73458 26.4392 4.58412 27.1714 4.58412C27.9037 4.58412 28.6281 4.73458 29.2998 5.02617C29.9714 5.31776 30.576 5.74426 31.076 6.2792L33.3045 8.61143C33.4514 8.75696 33.6499 8.83861 33.8566 8.83861C34.0634 8.83861 34.2618 8.75696 34.4087 8.61143L36.6373 6.2792C37.1373 5.74426 37.7419 5.31776 38.4135 5.02617C39.0852 4.73458 39.8096 4.58412 40.5419 4.58412C41.2741 4.58412 41.9985 4.73458 42.6702 5.02617C43.3418 5.31776 43.9464 5.74426 44.4464 6.2792C45.4962 7.40079 46.0803 8.87957 46.0803 10.4158C46.0803 11.9521 45.4962 13.4308 44.4464 14.5524L33.8566 25.6339L23.2669 14.5524C22.217 13.4308 21.6329 11.9521 21.6329 10.4158C21.6329 8.87957 22.217 7.40079 23.2669 6.2792Z" fill="black"/>
<path d="M33.8176 20.6266L33.818 20.6198C33.83 20.6204 33.8406 20.6272 33.8527 20.6273H33.8572C33.868 20.6273 33.8775 20.6213 33.8883 20.6208L33.8885 20.6266C38.5052 20.4378 40.4883 18.457 40.7322 13.7911C40.7377 13.6849 40.721 13.5788 40.6831 13.4795C40.6452 13.3802 40.587 13.2899 40.5121 13.2143C40.4387 13.137 40.3492 13.0767 40.2499 13.0376C40.1507 12.9986 40.0441 12.9817 39.9376 12.9883C38.8056 13.0059 37.6846 13.2143 36.622 13.6049C36.1231 12.3306 35.3763 11.168 34.4249 10.1845C34.3537 10.1056 34.2668 10.0423 34.1698 9.99879C34.0729 9.95525 33.9679 9.93238 33.8616 9.93164H33.8572C33.7516 9.93171 33.6472 9.95362 33.5505 9.99599C33.4538 10.0384 33.367 10.1003 33.2954 10.1778C32.3253 11.1549 31.5691 12.3232 31.075 13.6083C30.0188 13.2258 28.9078 13.0165 27.7849 12.9883C27.6787 12.9829 27.5726 12.9997 27.4733 13.0376C27.374 13.0755 27.2837 13.1336 27.2081 13.2084C27.1326 13.2832 27.0735 13.3729 27.0345 13.4718C26.9956 13.5707 26.9777 13.6766 26.9821 13.7829C27.1708 18.3996 29.1517 20.3826 33.8176 20.6266ZM39.1379 14.5767C38.8501 17.2169 37.8798 18.4554 35.6146 18.9061C36.4546 17.831 36.913 16.507 36.9175 15.1426C37.6202 14.8297 38.371 14.6383 39.1379 14.5767V14.5767ZM33.8512 11.8617C35.9081 14.3984 35.9118 16.2165 33.8631 18.6972C31.8062 16.1606 31.8025 14.3424 33.8512 11.8617V11.8617ZM30.7921 15.1542C30.8199 16.5084 31.2811 17.818 32.108 18.8907C29.8035 18.4221 28.8288 17.1927 28.5675 14.5834C29.3355 14.6493 30.0873 14.8422 30.7921 15.1542Z" fill="black"/>
<path d="M39.9688 29.0312H27.7451V30.5592H39.9688V29.0312Z" fill="black"/>
<path d="M32.329 33.6152H10.9375V35.1432H32.329V33.6152Z" fill="black"/>
<path d="M56.7759 33.6152H33.8564V35.1432H56.7759V33.6152Z" fill="black"/>
<path d="M32.3287 38.9629H13.9932V40.4909H32.3287V38.9629Z" fill="black"/>
<path d="M32.3284 44.311H17.0488V45.839H32.3284V44.311Z" fill="black"/>
<path d="M39.9683 44.3789H33.8564V45.9069H39.9683V44.3789Z" fill="black"/>
<path d="M44.5522 38.9629H33.8564V40.4909H44.5522V38.9629Z" fill="black"/>
<path d="M43.025 57.2983H41.4971V59.5903H43.025V57.2983Z" fill="black"/>
<path d="M37.6764 57.2983H36.1484V59.5903H37.6764V57.2983Z" fill="black"/>
<path d="M48.3727 57.2983H46.8447V59.5903H48.3727V57.2983Z" fill="black"/>
<path d="M63.7853 42.7757C64.1764 42.5081 64.457 42.1077 64.5752 41.6488C64.6934 41.1899 64.6411 40.7038 64.428 40.2806C64.3755 40.1752 64.3669 40.0532 64.4041 39.9415C64.4413 39.8298 64.5213 39.7374 64.6265 39.6845L65.2144 39.3905L66.9863 41.1624L68.0666 40.0821L66.2335 38.249C66.1263 38.1418 66.0533 38.0053 66.0239 37.8566L65.574 35.6101L64.0759 35.9101L64.5022 38.0381L63.943 38.3176C63.4756 38.5521 63.1203 38.9624 62.955 39.4585C62.7897 39.9546 62.8279 40.496 63.0612 40.964C63.0874 41.0161 63.1031 41.0728 63.1073 41.131C63.1115 41.1892 63.1042 41.2476 63.0857 41.3029C63.0673 41.3582 63.0381 41.4094 62.9998 41.4534C62.9615 41.4974 62.915 41.5334 62.8627 41.5593L62.4866 41.7474C62.1228 41.4915 61.7462 41.2544 61.3601 41.0303V0.763981C61.3602 0.663637 61.3405 0.564266 61.3021 0.47155C61.2637 0.378834 61.2074 0.294591 61.1365 0.223637C61.0655 0.152684 60.9813 0.0964114 60.8886 0.058038C60.7959 0.0196647 60.6965 -5.71205e-05 60.5961 1.24262e-07H7.11755C7.0172 -5.71205e-05 6.91783 0.0196647 6.82512 0.058038C6.7324 0.0964114 6.64816 0.152684 6.5772 0.223637C6.50625 0.294591 6.44998 0.378834 6.4116 0.47155C6.37323 0.564266 6.35351 0.663637 6.35357 0.763981V39.8711L5.58959 38.7264V34.3791H4.06163V36.437L2.40532 33.9553L1.13405 34.8029L2.95767 37.535L0.483462 36.7106L0 38.1595L4.34017 39.6062L5.17079 40.8506L4.45782 41.2893C3.88165 41.6439 3.38687 42.1163 3.00583 42.6753C2.62479 43.2344 2.36608 43.8676 2.24664 44.5336C2.12719 45.1995 2.1497 45.8832 2.31268 46.5398C2.47567 47.1965 2.77546 47.8113 3.19244 48.3441L6.35357 52.3834V67.2303C6.35351 67.3306 6.37323 67.43 6.4116 67.5227C6.44998 67.6154 6.50625 67.6997 6.5772 67.7706C6.64816 67.8416 6.7324 67.8978 6.82512 67.9362C6.91783 67.9746 7.0172 67.9943 7.11755 67.9943H16.7454C18.1099 69.4942 19.8497 70.515 21.6623 70.2399C21.9673 70.1925 22.2686 70.123 22.5635 70.0318C22.9532 69.9139 23.3691 69.9139 23.7587 70.0318C24.0542 70.1231 24.3559 70.1927 24.6615 70.2399C24.8609 70.2708 25.0625 70.2863 25.2643 70.2862C26.1024 70.2218 26.9181 69.9849 27.6604 69.5905C28.4026 69.1961 29.0554 68.6527 29.5779 67.9943H34.2361C36.4215 69.3537 38.9164 70.1355 41.4867 70.2665C44.0571 70.3975 46.6185 69.8733 48.9307 68.7431C52.2746 69.8539 55.8999 69.7732 59.191 68.5148C62.4822 67.2563 65.2364 64.8976 66.986 61.8391C68.7356 58.7806 69.3728 55.2108 68.7894 51.7359C68.2059 48.261 66.4378 45.0951 63.7853 42.7757ZM55.8429 48.8843C56.2697 49.8691 56.4913 50.4675 56.0876 51.3158C55.9665 51.6358 55.7682 51.921 55.5104 52.146C55.2526 52.3711 54.9432 52.529 54.6097 52.6057C53.7189 52.8521 52.9616 53.4405 52.5026 54.2426H44.6781C45.1255 53.9861 45.6045 53.7893 46.1029 53.6569C46.8 53.528 47.4585 53.2416 48.028 52.8195C48.5976 52.3974 49.0631 51.8507 49.3892 51.2212C49.7153 50.5918 49.8933 49.8961 49.9097 49.1874C49.926 48.4787 49.7802 47.7756 49.4834 47.1318C49.2641 46.6783 49.1494 46.1814 49.1476 45.6778C49.1458 45.1741 49.2569 44.6764 49.4729 44.2213C50.028 43.1112 50.8398 42.8553 51.8664 42.5322C53.0844 42.271 54.1609 41.564 54.8845 40.55C56.7993 40.7087 58.659 41.27 60.3419 42.1972C59.8663 42.6387 59.2703 42.929 58.6295 43.0314C57.9864 43.107 57.3729 43.3445 56.8465 43.7217C56.3201 44.0989 55.8979 44.6034 55.6196 45.1881C55.3412 45.7729 55.2156 46.4186 55.2547 47.065C55.2938 47.7114 55.4962 48.3374 55.8429 48.8843V48.8843ZM32.3144 61.4197C32.2583 60.2835 31.8749 59.1877 31.2104 58.2643C30.546 57.341 29.6288 56.6294 28.5692 56.2152C28.5565 56.0669 28.5386 55.9174 28.5306 55.7706H55.4596C54.7918 58.0953 53.5212 60.2021 51.7768 61.8776C50.0323 63.5531 47.8759 64.7376 45.5262 65.3111C43.1764 65.8846 40.7168 65.8267 38.3966 65.1433C36.0764 64.4599 33.9781 63.1753 32.3144 61.4197ZM48.0278 47.5973C48.2471 48.0509 48.3619 48.548 48.3635 49.0518C48.3652 49.5557 48.2538 50.0534 48.0375 50.5085C47.4824 51.6194 46.6707 51.8753 45.6433 52.1991C44.402 52.4656 43.3095 53.1967 42.5898 54.2426H39.9687C39.9744 50.766 41.2959 47.4204 43.6676 44.8784C46.0392 42.3364 49.2853 40.7864 52.7532 40.54C52.3264 40.7687 51.8749 40.948 51.4075 41.0744C50.7105 41.2029 50.052 41.489 49.4824 41.9109C48.9129 42.3328 48.4472 42.8793 48.1212 43.5087C47.7951 44.138 47.6172 44.8336 47.601 45.5422C47.5848 46.2508 47.7308 46.9537 48.0278 47.5973H48.0278ZM59.8322 1.52796V40.2476C57.5079 39.2285 54.9662 38.805 52.437 39.0156C49.9079 39.2262 47.4712 40.0641 45.3474 41.4535C43.2237 42.843 41.4799 44.7401 40.2739 46.9731C39.068 49.2062 38.4379 51.7047 38.4407 54.2426H27.745C27.6447 54.2425 27.5453 54.2623 27.4526 54.3006C27.3599 54.339 27.2756 54.3953 27.2047 54.4662C27.1337 54.5372 27.0774 54.6214 27.0391 54.7142C27.0007 54.8069 26.981 54.9062 26.981 55.0066C26.981 55.2773 26.9912 55.553 27.006 55.8301C25.9027 55.7036 24.7853 55.8599 23.759 56.2841C23.7024 55.8236 23.6209 55.3839 23.5258 54.9511C23.7825 54.9111 24.0359 54.8523 24.284 54.7753C26.1581 54.2076 27.2869 52.8363 26.9102 51.5844C26.8356 51.3514 26.7148 51.1359 26.5551 50.9507C26.3954 50.7655 26.2 50.6143 25.9806 50.5063C25.0254 50.0835 23.9446 50.0429 22.9604 50.3929C22.6353 50.4908 22.3209 50.6212 22.0219 50.7822C21.8658 50.4513 21.6995 50.1098 21.5228 49.7543L20.1545 50.4347C21.1419 52.2062 21.8298 54.1287 22.1903 56.1246C21.6747 55.9563 21.1403 55.8521 20.5993 55.8142L13.595 41.8055C13.0874 40.7868 12.2336 39.9821 11.1867 39.5356C10.1398 39.089 8.96813 39.0298 7.88153 39.3685V1.52796H59.8322ZM22.6414 52.1889C22.8805 52.048 23.1357 51.9362 23.4014 51.8559C24.0005 51.6261 24.6635 51.6258 25.2628 51.8552C25.3106 51.8805 25.424 51.9477 25.4471 52.0253C25.5232 52.2774 24.9569 52.975 23.8363 53.3145C23.6022 53.3863 23.3614 53.434 23.1176 53.4567C22.9795 53.0405 22.8182 52.6185 22.6414 52.1889ZM3.74977 44.804C3.83167 44.3497 4.00842 43.9178 4.26848 43.5363C4.52854 43.1549 4.86607 42.8326 5.25907 42.5904L7.57862 41.1632C7.96592 40.9249 8.39854 40.7699 8.84899 40.7078C9.29945 40.6458 9.75788 40.6781 10.1952 40.8028C10.6324 40.9275 11.039 41.1418 11.389 41.4321C11.739 41.7224 12.0248 42.0823 12.2282 42.4889L14.5215 47.0757L11.3082 49.0037L12.0946 50.3138L15.2069 48.4464L18.9246 55.8817C17.8411 56.0681 16.8305 56.5515 16.0056 57.2783C15.1807 58.005 14.5737 58.9465 14.2523 59.9979L11.5791 56.5822L14.3866 54.8977L13.6002 53.5876L10.6302 55.3696L6.17523 49.6771L9.83326 47.2384L8.98571 45.9672L5.23082 48.4704L4.39512 47.4026C4.11098 47.0391 3.90665 46.6199 3.79545 46.1721C3.68426 45.7243 3.66869 45.2582 3.74977 44.804ZM7.88153 66.4663V54.3358L14.0139 62.1717C14.032 62.4733 14.0715 62.7733 14.1321 63.0694C14.4155 64.2773 14.9069 65.4268 15.5842 66.4663H7.88153ZM24.8958 68.7299C24.6644 68.6942 24.436 68.6415 24.2124 68.5725C23.5274 68.3616 22.7948 68.3616 22.1099 68.5725C21.8867 68.6414 21.6588 68.694 21.428 68.7299C18.8764 69.1238 16.1965 65.4307 15.6272 62.7516C15.489 62.1516 15.477 61.5295 15.592 60.9246C15.707 60.3198 15.9465 59.7454 16.2952 59.238C16.6439 58.7306 17.0943 58.3012 17.6177 57.9771C18.1412 57.653 18.7263 57.4412 19.336 57.3552C20.5265 57.1821 21.7399 57.4353 22.762 58.07C22.882 58.1439 23.0202 58.183 23.1611 58.183C23.3021 58.183 23.4402 58.1439 23.5603 58.07C24.5823 57.4353 25.7957 57.1822 26.9862 57.3552C27.5959 57.4412 28.181 57.653 28.7045 57.9771C29.2279 58.3012 29.6783 58.7306 30.027 59.238C30.3758 59.7454 30.6152 60.3198 30.7302 60.9246C30.8452 61.5295 30.8332 62.1516 30.695 62.7516C30.125 65.4315 27.4123 69.1149 24.8958 68.7299ZM30.7388 66.4663C30.9221 66.178 31.0945 65.885 31.2499 65.5878C31.3202 65.6605 31.3864 65.7329 31.4597 65.806C31.6923 66.0394 31.9409 66.2501 32.1856 66.4663H30.7388ZM42.2606 68.7582C40.454 68.7638 38.6643 68.4101 36.9955 67.7179C35.3267 67.0256 33.8122 66.0085 32.54 64.7257C32.313 64.4987 32.1081 64.2761 31.911 64.0519C31.9903 63.8195 32.0583 63.5906 32.1151 63.3652C33.7309 64.8066 35.6355 65.8869 37.7018 66.5341C39.7681 67.1813 41.9487 67.3804 44.098 67.1182C46.2474 66.856 48.3161 66.1386 50.1662 65.0136C52.0164 63.8887 53.6054 62.3823 54.8273 60.5947C53.7436 63.0228 51.9805 65.0855 49.7507 66.534C47.5209 67.9825 44.9196 68.755 42.2606 68.7582ZM50.7947 67.6701C52.8754 66.2785 54.58 64.3943 55.7568 62.185C56.9337 59.9757 57.5463 57.5098 57.5403 55.0066C57.5403 54.9062 57.5206 54.8069 57.4822 54.7142C57.4438 54.6214 57.3876 54.5372 57.3166 54.4662C57.2457 54.3953 57.1614 54.339 57.0687 54.3006C56.976 54.2623 56.8766 54.2425 56.7763 54.2426H54.6286C54.7901 54.1682 54.9554 54.1022 55.1237 54.0449C55.6464 53.9008 56.1293 53.6391 56.5354 53.2799C56.9415 52.9207 57.2602 52.4735 57.4671 51.9723C57.7241 51.3823 57.8379 50.74 57.7992 50.0976C57.7606 49.4553 57.5706 48.8312 57.2448 48.2762C56.8173 47.2914 56.5957 46.6931 56.9994 45.844C57.4037 44.9965 58.008 44.792 59.0406 44.5033C60.0497 44.3181 60.9649 43.7929 61.6339 43.0152C63.8454 44.5784 65.5484 46.7573 66.531 49.2809C66.186 49.4208 65.8286 49.528 65.4635 49.6013C64.4541 49.8355 63.1985 50.128 62.5061 51.5649C61.8123 53.0026 62.3651 54.1665 62.809 55.1013C63.2455 56.0198 63.4753 56.5756 63.1171 57.3179C62.7583 58.0603 62.1793 58.2266 61.1871 58.4564C60.1776 58.6907 58.9212 58.9824 58.2274 60.4194C57.7307 61.698 57.5997 63.0896 57.8491 64.4385C58.0176 65.4222 57.9744 66.4305 57.7224 67.3962C55.476 68.0867 53.0886 68.1811 50.7947 67.6701ZM59.428 66.7381C59.4898 65.9254 59.4708 65.1086 59.3711 64.2997C59.1629 63.2259 59.243 62.1161 59.6032 61.0833C59.9613 60.3417 60.5402 60.1753 61.5325 59.9448C62.5419 59.7113 63.7991 59.4196 64.4929 57.9819C65.1868 56.5449 64.6339 55.3811 64.1893 54.4455C63.7528 53.5271 63.5238 52.9712 63.8826 52.2282C64.24 51.4866 64.8182 51.3202 65.8097 51.0896C66.2156 51.0031 66.6143 50.8859 67.0025 50.7391C67.8458 53.871 67.5467 57.2007 66.1588 60.1322C64.771 63.0637 62.3849 65.4054 59.428 66.738V66.7381Z" fill="black"/>
</svg>
