<svg width="49" height="34" viewBox="0 0 49 34" fill="none" xmlns="http://www.w3.org/2000/svg">
<path d="M6.68229 21.7495C4.05129 22.2587 1.58326 23.5971 0 25.3138C3.20145 27.3069 7.2993 27.0304 10.6404 26.5504C11.6882 26.3903 12.6312 26.1139 13.5741 25.7211C12.4682 25.4593 11.3739 25.0374 10.3494 24.4845C9.02226 23.8008 7.76496 22.8697 6.68229 21.7495Z" fill="#1C3C3C"/>
<path d="M13.0856 16.0468C11.3394 14.6647 7.11345 12.2207 4.19141 12.5116C5.32064 14.2865 5.80959 16.2796 7.17166 17.8798C8.68507 19.6983 10.4546 21.0368 12.4686 21.7933C15.0996 22.7971 16.9623 22.157 19.407 21.2404C17.1718 19.8293 15.2393 17.778 13.0856 16.0468Z" fill="#1C3C3C"/>
<path d="M17.1714 6.70671C16.7523 6.05205 14.6219 3.84075 13.1784 2.41504C12.8291 4.27719 11.7814 8.35064 13.2249 10.9984C13.4228 11.1293 13.5975 11.2166 13.7837 11.333C14.913 12.0895 15.9723 12.9478 17.0201 13.908C16.7873 12.2932 16.764 10.6492 16.8688 9.0344C16.927 8.29245 17.0201 7.5214 17.1714 6.70671Z" fill="#1C3C3C"/>
<path d="M24.5054 20.6582C25.0758 19.5526 25.6695 18.4469 26.3214 17.414C27.6952 15.2172 28.1143 13.1223 28.1026 10.3873C28.0793 7.8414 27.439 5.70283 26.4728 3.53517C25.9373 2.37133 25.2155 0.931075 24.5054 0C23.7952 0.931075 23.0734 2.37133 22.5612 3.53517C21.5717 5.70283 20.9314 7.85594 20.9081 10.4018C20.8848 13.1223 21.3272 15.2172 22.6893 17.414C23.3528 18.4469 23.9466 19.5671 24.5054 20.6582Z" fill="#1C3C3C"/>
<path d="M35.2276 11.3326C35.4255 11.2308 35.5885 11.1289 35.7748 11.0125C37.2416 8.3648 36.1822 4.3059 35.8446 2.4292C34.3778 3.84036 32.2707 6.06621 31.8516 6.72087C32.0029 7.53556 32.096 8.30661 32.131 9.04856C32.2357 10.6634 32.2241 12.3073 31.9913 13.9221C33.0157 12.9474 34.0984 12.0891 35.2276 11.3326Z" fill="#1C3C3C"/>
<path d="M38.674 24.4845C37.6263 25.0374 36.5669 25.4738 35.4609 25.7211C36.3806 26.1139 37.3585 26.3903 38.3946 26.5504C41.7241 27.0304 45.822 27.3069 49.0001 25.3138C47.4285 23.5971 44.9721 22.2587 42.3411 21.7495C41.2468 22.8697 40.0012 23.8008 38.674 24.4845Z" fill="#1C3C3C"/>
<path d="M41.8514 17.8798C43.2018 16.2796 43.6908 14.2719 44.82 12.5116C41.8863 12.2207 37.6953 14.6647 35.9375 16.0468C33.7838 17.778 31.8512 19.8293 29.5928 21.2404C32.0608 22.157 33.9235 22.7971 36.5428 21.7933C38.5685 21.0513 40.338 19.7129 41.8514 17.8798Z" fill="#1C3C3C"/>
<path d="M24.623 22.5641C24.5764 22.535 24.5182 22.5059 24.5182 22.5059C24.5066 22.5059 24.5066 22.5059 24.5066 22.5059C24.5066 22.5059 24.5066 22.5059 24.4833 22.5059C24.4833 22.5059 24.4717 22.535 24.4018 22.5495C22.8884 23.1751 21.5496 27.3358 15.624 26.7248C15.624 26.7248 19.0117 30.2309 22.9117 27.9759V33.2423H26.0898V27.9905C29.9898 30.2309 33.3891 26.7393 33.3891 26.7393C27.4519 27.3358 26.1248 23.1751 24.623 22.5641Z" fill="#1C3C3C"/>
</svg>
